<mxfile host="app.diagrams.net" modified="2022-11-03T21:34:02.034Z" agent="5.0 (Windows NT 10.0; Win64; x64) AppleWebKit/537.36 (KHTML, like Gecko) Chrome/106.0.0.0 Safari/537.36" etag="LMr20Hd1ghaRMaXcQsJX" version="20.4.1" type="github">
  <diagram id="_UXg3EZRKqw_mdlAzJet" name="Page-1">
    <mxGraphModel dx="1239" dy="2281" grid="1" gridSize="10" guides="1" tooltips="1" connect="1" arrows="1" fold="1" page="1" pageScale="1" pageWidth="827" pageHeight="1169" background="none" math="0" shadow="1">
      <root>
        <mxCell id="0" />
        <mxCell id="1" parent="0" />
        <mxCell id="QuIaBzUg3UuywY2mTjsj-6" style="edgeStyle=orthogonalEdgeStyle;rounded=0;orthogonalLoop=1;jettySize=auto;html=1;exitX=1;exitY=0.5;exitDx=0;exitDy=0;entryX=0;entryY=0.5;entryDx=0;entryDy=0;" parent="1" source="QuIaBzUg3UuywY2mTjsj-1" target="QuIaBzUg3UuywY2mTjsj-2" edge="1">
          <mxGeometry relative="1" as="geometry" />
        </mxCell>
        <mxCell id="QuIaBzUg3UuywY2mTjsj-10" style="edgeStyle=orthogonalEdgeStyle;rounded=0;orthogonalLoop=1;jettySize=auto;html=1;exitX=0.5;exitY=1;exitDx=0;exitDy=0;entryX=0.5;entryY=0;entryDx=0;entryDy=0;" parent="1" source="QuIaBzUg3UuywY2mTjsj-1" target="QuIaBzUg3UuywY2mTjsj-9" edge="1">
          <mxGeometry relative="1" as="geometry" />
        </mxCell>
        <mxCell id="QuIaBzUg3UuywY2mTjsj-1" value="Avatar Owner?" style="rhombus;whiteSpace=wrap;html=1;rounded=1;fillColor=#f5f5f5;fontColor=#333333;strokeColor=#666666;" parent="1" vertex="1">
          <mxGeometry x="230" y="-819" width="80" height="80" as="geometry" />
        </mxCell>
        <mxCell id="QuIaBzUg3UuywY2mTjsj-3" style="edgeStyle=orthogonalEdgeStyle;rounded=0;orthogonalLoop=1;jettySize=auto;html=1;exitX=0.5;exitY=0;exitDx=0;exitDy=0;entryX=0.5;entryY=0;entryDx=0;entryDy=0;" parent="1" source="QuIaBzUg3UuywY2mTjsj-2" target="QuIaBzUg3UuywY2mTjsj-1" edge="1">
          <mxGeometry relative="1" as="geometry">
            <Array as="points">
              <mxPoint x="451" y="-869" />
              <mxPoint x="270" y="-869" />
            </Array>
          </mxGeometry>
        </mxCell>
        <mxCell id="bduGYvhW30INQsXJT5ZD-14" style="edgeStyle=orthogonalEdgeStyle;rounded=0;orthogonalLoop=1;jettySize=auto;html=1;exitX=0.5;exitY=1;exitDx=0;exitDy=0;entryX=0.5;entryY=0;entryDx=0;entryDy=0;dashed=1;" parent="1" source="QuIaBzUg3UuywY2mTjsj-2" target="bduGYvhW30INQsXJT5ZD-12" edge="1">
          <mxGeometry relative="1" as="geometry" />
        </mxCell>
        <mxCell id="QuIaBzUg3UuywY2mTjsj-2" value="Buy Avatar" style="rounded=1;whiteSpace=wrap;html=1;glass=0;fillColor=#f5f5f5;fontColor=#333333;strokeColor=#666666;" parent="1" vertex="1">
          <mxGeometry x="411" y="-799" width="80" height="40" as="geometry" />
        </mxCell>
        <mxCell id="QuIaBzUg3UuywY2mTjsj-5" style="edgeStyle=orthogonalEdgeStyle;rounded=0;orthogonalLoop=1;jettySize=auto;html=1;exitX=1;exitY=0.5;exitDx=0;exitDy=0;entryX=0;entryY=0.5;entryDx=0;entryDy=0;" parent="1" source="QuIaBzUg3UuywY2mTjsj-4" target="QuIaBzUg3UuywY2mTjsj-1" edge="1">
          <mxGeometry relative="1" as="geometry" />
        </mxCell>
        <mxCell id="QuIaBzUg3UuywY2mTjsj-4" value="Start" style="ellipse;whiteSpace=wrap;html=1;fillColor=#d5e8d4;strokeColor=#82b366;" parent="1" vertex="1">
          <mxGeometry x="11" y="-809" width="90" height="60" as="geometry" />
        </mxCell>
        <mxCell id="QuIaBzUg3UuywY2mTjsj-8" value="No" style="text;html=1;strokeColor=none;fillColor=none;align=center;verticalAlign=middle;whiteSpace=wrap;rounded=0;labelBackgroundColor=none;" parent="1" vertex="1">
          <mxGeometry x="321" y="-799" width="60" height="30" as="geometry" />
        </mxCell>
        <mxCell id="QuIaBzUg3UuywY2mTjsj-13" style="edgeStyle=orthogonalEdgeStyle;rounded=0;orthogonalLoop=1;jettySize=auto;html=1;exitX=0.5;exitY=1;exitDx=0;exitDy=0;entryX=0.5;entryY=0;entryDx=0;entryDy=0;" parent="1" source="QuIaBzUg3UuywY2mTjsj-9" target="QuIaBzUg3UuywY2mTjsj-11" edge="1">
          <mxGeometry relative="1" as="geometry" />
        </mxCell>
        <mxCell id="Pm1PxJtQP01OEuUM-juH-1" style="edgeStyle=orthogonalEdgeStyle;rounded=0;orthogonalLoop=1;jettySize=auto;html=1;exitX=1;exitY=0.5;exitDx=0;exitDy=0;entryX=1;entryY=0.5;entryDx=0;entryDy=0;dashed=1;" parent="1" source="QuIaBzUg3UuywY2mTjsj-9" target="WOP9kb_ligrmdYlrK7DN-1" edge="1">
          <mxGeometry relative="1" as="geometry">
            <Array as="points">
              <mxPoint x="390" y="-649" />
              <mxPoint x="390" y="-320" />
            </Array>
          </mxGeometry>
        </mxCell>
        <mxCell id="QuIaBzUg3UuywY2mTjsj-9" value="Mint your own CryptoKiwi" style="rounded=1;whiteSpace=wrap;html=1;verticalAlign=middle;fillColor=#dae8fc;strokeColor=#6c8ebf;" parent="1" vertex="1">
          <mxGeometry x="210" y="-679" width="120" height="60" as="geometry" />
        </mxCell>
        <mxCell id="QuIaBzUg3UuywY2mTjsj-17" style="edgeStyle=orthogonalEdgeStyle;rounded=0;orthogonalLoop=1;jettySize=auto;html=1;exitX=0.5;exitY=1;exitDx=0;exitDy=0;entryX=0.5;entryY=0;entryDx=0;entryDy=0;" parent="1" source="QuIaBzUg3UuywY2mTjsj-11" target="QuIaBzUg3UuywY2mTjsj-15" edge="1">
          <mxGeometry relative="1" as="geometry" />
        </mxCell>
        <mxCell id="QuIaBzUg3UuywY2mTjsj-11" value="Resell on Marketplace" style="rounded=1;whiteSpace=wrap;html=1;verticalAlign=middle;fillColor=#dae8fc;strokeColor=#6c8ebf;" parent="1" vertex="1">
          <mxGeometry x="210" y="-569" width="120" height="60" as="geometry" />
        </mxCell>
        <mxCell id="WOP9kb_ligrmdYlrK7DN-3" value="Royalty Payment" style="edgeStyle=orthogonalEdgeStyle;rounded=0;orthogonalLoop=1;jettySize=auto;html=1;exitX=0.5;exitY=1;exitDx=0;exitDy=0;entryX=0.5;entryY=0;entryDx=0;entryDy=0;dashed=1;labelBackgroundColor=none;" parent="1" source="QuIaBzUg3UuywY2mTjsj-15" target="WOP9kb_ligrmdYlrK7DN-1" edge="1">
          <mxGeometry relative="1" as="geometry" />
        </mxCell>
        <mxCell id="vS0mOCaokGMMlRBcoSL3-7" style="edgeStyle=orthogonalEdgeStyle;rounded=0;orthogonalLoop=1;jettySize=auto;html=1;exitX=0;exitY=0.5;exitDx=0;exitDy=0;labelBackgroundColor=none;dashed=1;startArrow=classic;startFill=1;endArrow=none;endFill=0;" parent="1" source="QuIaBzUg3UuywY2mTjsj-15" edge="1">
          <mxGeometry relative="1" as="geometry">
            <mxPoint x="150" y="-440" as="targetPoint" />
          </mxGeometry>
        </mxCell>
        <mxCell id="QuIaBzUg3UuywY2mTjsj-15" value="NFT Marketplaces" style="rounded=1;whiteSpace=wrap;html=1;verticalAlign=middle;fillColor=#dae8fc;strokeColor=#6c8ebf;" parent="1" vertex="1">
          <mxGeometry x="210" y="-470" width="120" height="60" as="geometry" />
        </mxCell>
        <mxCell id="QuIaBzUg3UuywY2mTjsj-18" value="MINT" style="text;html=1;strokeColor=none;fillColor=none;align=center;verticalAlign=middle;whiteSpace=wrap;rounded=0;labelBackgroundColor=none;" parent="1" vertex="1">
          <mxGeometry x="139" y="-799" width="60" height="30" as="geometry" />
        </mxCell>
        <mxCell id="Pm1PxJtQP01OEuUM-juH-2" style="edgeStyle=orthogonalEdgeStyle;rounded=0;orthogonalLoop=1;jettySize=auto;html=1;exitX=0.25;exitY=1;exitDx=0;exitDy=0;dashed=1;" parent="1" source="WOP9kb_ligrmdYlrK7DN-1" edge="1">
          <mxGeometry relative="1" as="geometry">
            <mxPoint x="140" y="-200" as="targetPoint" />
            <Array as="points">
              <mxPoint x="240" y="-200" />
              <mxPoint x="170" y="-200" />
            </Array>
          </mxGeometry>
        </mxCell>
        <mxCell id="bduGYvhW30INQsXJT5ZD-2" style="edgeStyle=orthogonalEdgeStyle;rounded=0;orthogonalLoop=1;jettySize=auto;html=1;exitX=0.75;exitY=1;exitDx=0;exitDy=0;entryX=0;entryY=0.5;entryDx=0;entryDy=0;dashed=1;" parent="1" source="WOP9kb_ligrmdYlrK7DN-1" target="bduGYvhW30INQsXJT5ZD-12" edge="1">
          <mxGeometry relative="1" as="geometry">
            <mxPoint x="400" y="-200" as="targetPoint" />
          </mxGeometry>
        </mxCell>
        <mxCell id="WOP9kb_ligrmdYlrK7DN-1" value="Distributor&lt;br&gt;Smart Contract" style="rounded=1;whiteSpace=wrap;html=1;" parent="1" vertex="1">
          <mxGeometry x="210" y="-350" width="120" height="60" as="geometry" />
        </mxCell>
        <mxCell id="bduGYvhW30INQsXJT5ZD-6" style="edgeStyle=orthogonalEdgeStyle;rounded=0;orthogonalLoop=1;jettySize=auto;html=1;exitX=1;exitY=0.5;exitDx=0;exitDy=0;entryX=0;entryY=0.5;entryDx=0;entryDy=0;dashed=1;" parent="1" edge="1">
          <mxGeometry relative="1" as="geometry">
            <mxPoint x="520" y="-200" as="sourcePoint" />
            <mxPoint x="570" y="-260" as="targetPoint" />
            <Array as="points">
              <mxPoint x="530" y="-200" />
              <mxPoint x="530" y="-260" />
            </Array>
          </mxGeometry>
        </mxCell>
        <mxCell id="bduGYvhW30INQsXJT5ZD-7" style="edgeStyle=orthogonalEdgeStyle;rounded=0;orthogonalLoop=1;jettySize=auto;html=1;exitX=1;exitY=0.5;exitDx=0;exitDy=0;entryX=0;entryY=0.5;entryDx=0;entryDy=0;dashed=1;" parent="1" source="bduGYvhW30INQsXJT5ZD-12" target="bduGYvhW30INQsXJT5ZD-16" edge="1">
          <mxGeometry relative="1" as="geometry">
            <mxPoint x="520" y="-200" as="sourcePoint" />
            <mxPoint x="570" y="-140" as="targetPoint" />
          </mxGeometry>
        </mxCell>
        <mxCell id="bduGYvhW30INQsXJT5ZD-10" style="edgeStyle=orthogonalEdgeStyle;rounded=0;orthogonalLoop=1;jettySize=auto;html=1;exitX=1;exitY=0.5;exitDx=0;exitDy=0;dashed=1;entryX=0;entryY=0.5;entryDx=0;entryDy=0;" parent="1" source="bduGYvhW30INQsXJT5ZD-16" target="bduGYvhW30INQsXJT5ZD-17" edge="1">
          <mxGeometry relative="1" as="geometry">
            <mxPoint x="690" y="-140" as="sourcePoint" />
            <mxPoint x="680" y="-160" as="targetPoint" />
          </mxGeometry>
        </mxCell>
        <mxCell id="bduGYvhW30INQsXJT5ZD-8" style="edgeStyle=orthogonalEdgeStyle;rounded=0;orthogonalLoop=1;jettySize=auto;html=1;exitX=1;exitY=0.5;exitDx=0;exitDy=0;dashed=1;" parent="1" source="bduGYvhW30INQsXJT5ZD-15" edge="1">
          <mxGeometry relative="1" as="geometry">
            <mxPoint x="690" y="-260" as="sourcePoint" />
            <mxPoint x="700" y="-260" as="targetPoint" />
          </mxGeometry>
        </mxCell>
        <mxCell id="bduGYvhW30INQsXJT5ZD-5" value="" style="shape=image;html=1;verticalAlign=top;verticalLabelPosition=bottom;labelBackgroundColor=#ffffff;imageAspect=0;aspect=fixed;image=https://cdn4.iconfinder.com/data/icons/christmas-2434/128/Artboard_42-128.png" parent="1" vertex="1">
          <mxGeometry x="700" y="-310" width="80" height="80" as="geometry" />
        </mxCell>
        <mxCell id="bduGYvhW30INQsXJT5ZD-12" value="BuyBack&lt;br&gt;Contract" style="rounded=1;whiteSpace=wrap;html=1;glass=0;fillColor=#f5f5f5;fontColor=#333333;strokeColor=#666666;" parent="1" vertex="1">
          <mxGeometry x="411" y="-220" width="80" height="40" as="geometry" />
        </mxCell>
        <mxCell id="bduGYvhW30INQsXJT5ZD-15" value="Buy GRPH" style="rounded=1;whiteSpace=wrap;html=1;glass=0;fillColor=#f5f5f5;fontColor=#333333;strokeColor=#666666;" parent="1" vertex="1">
          <mxGeometry x="570" y="-280" width="80" height="40" as="geometry" />
        </mxCell>
        <mxCell id="bduGYvhW30INQsXJT5ZD-16" value="BUY CARB" style="rounded=1;whiteSpace=wrap;html=1;glass=0;fillColor=#f5f5f5;fontColor=#333333;strokeColor=#666666;" parent="1" vertex="1">
          <mxGeometry x="570" y="-180" width="80" height="40" as="geometry" />
        </mxCell>
        <mxCell id="bduGYvhW30INQsXJT5ZD-17" value="Carbon&lt;br&gt;Vault" style="rounded=1;whiteSpace=wrap;html=1;glass=0;fillColor=#f5f5f5;fontColor=#333333;strokeColor=#666666;" parent="1" vertex="1">
          <mxGeometry x="710" y="-180" width="80" height="40" as="geometry" />
        </mxCell>
        <mxCell id="bduGYvhW30INQsXJT5ZD-19" value="" style="shape=umlActor;verticalLabelPosition=bottom;verticalAlign=top;html=1;outlineConnect=0;fillColor=#e1d5e7;strokeColor=#9673a6;" parent="1" vertex="1">
          <mxGeometry x="95" y="-230" width="30" height="60" as="geometry" />
        </mxCell>
        <mxCell id="bduGYvhW30INQsXJT5ZD-21" value="" style="shape=crossbar;whiteSpace=wrap;html=1;rounded=1;" parent="1" vertex="1">
          <mxGeometry x="50" y="-160" width="120" height="20" as="geometry" />
        </mxCell>
        <mxCell id="bduGYvhW30INQsXJT5ZD-23" value="Artist" style="text;html=1;strokeColor=none;fillColor=none;align=center;verticalAlign=middle;whiteSpace=wrap;rounded=0;" parent="1" vertex="1">
          <mxGeometry x="50" y="-150" width="120" height="30" as="geometry" />
        </mxCell>
        <mxCell id="vS0mOCaokGMMlRBcoSL3-2" value="80%" style="text;html=1;strokeColor=none;fillColor=none;align=center;verticalAlign=middle;whiteSpace=wrap;rounded=0;labelBackgroundColor=none;rotation=90;" parent="1" vertex="1">
          <mxGeometry x="190" y="-250" width="60" height="30" as="geometry" />
        </mxCell>
        <mxCell id="vS0mOCaokGMMlRBcoSL3-3" value="20%" style="text;html=1;strokeColor=none;fillColor=none;align=center;verticalAlign=middle;whiteSpace=wrap;rounded=0;labelBackgroundColor=none;rotation=90;" parent="1" vertex="1">
          <mxGeometry x="290" y="-250" width="60" height="30" as="geometry" />
        </mxCell>
        <mxCell id="vS0mOCaokGMMlRBcoSL3-4" value="" style="shape=umlActor;verticalLabelPosition=bottom;verticalAlign=top;html=1;outlineConnect=0;fillColor=#e1d5e7;strokeColor=#9673a6;" parent="1" vertex="1">
          <mxGeometry x="101" y="-470" width="30" height="60" as="geometry" />
        </mxCell>
        <mxCell id="vS0mOCaokGMMlRBcoSL3-5" value="Buyer" style="text;html=1;strokeColor=none;fillColor=none;align=center;verticalAlign=middle;whiteSpace=wrap;rounded=0;" parent="1" vertex="1">
          <mxGeometry x="56" y="-400" width="120" height="30" as="geometry" />
        </mxCell>
        <mxCell id="vS0mOCaokGMMlRBcoSL3-8" value="Minting Cost" style="text;html=1;strokeColor=none;fillColor=none;align=center;verticalAlign=middle;whiteSpace=wrap;rounded=0;labelBackgroundColor=none;rotation=90;" parent="1" vertex="1">
          <mxGeometry x="365" y="-510" width="90" height="30" as="geometry" />
        </mxCell>
        <mxCell id="nhzgOrf5G89J7yldY4jd-1" value="Main Carbon Wallet" style="rounded=1;whiteSpace=wrap;html=1;glass=0;fillColor=#f5f5f5;fontColor=#333333;strokeColor=#666666;" vertex="1" parent="1">
          <mxGeometry x="16" y="-1100" width="80" height="40" as="geometry" />
        </mxCell>
        <mxCell id="nhzgOrf5G89J7yldY4jd-2" value="10 Million" style="rounded=1;whiteSpace=wrap;html=1;fillColor=#76608a;strokeColor=#432D57;fontColor=#ffffff;verticalAlign=top;" vertex="1" parent="1">
          <mxGeometry x="110" y="-1020" width="120" height="80" as="geometry" />
        </mxCell>
        <mxCell id="nhzgOrf5G89J7yldY4jd-3" value="" style="shape=image;verticalLabelPosition=bottom;labelBackgroundColor=#ffffff;verticalAlign=top;aspect=fixed;imageAspect=0;image=data:image/png,iVBORw0KGgoAAAANSUhEUgAAAEAAAABACAYAAACqaXHeAAAJqHpUWHRSYXcgcHJvZmlsZSB0eXBlIGV4aWYAAHjavVlZksOqDv3XKu4SmIflMFbdHbzl3yPANk4n6bFepxLbGISko5Gm9r9/O/2DP2ODI2N9cNE5gT8TTVQJN0HMvzh+pTDjd/yZ9QrPt3E6XygMaVz1fPRpzU8Yt9eCYw+Z7+MU1hsVFqH14iCoeWeFm7oziXE1x+XihGKbNy4Gv7Oa1byWg+VwfbUfpE8i/Ez7gPHQUrWYpZVqWmoxfs3kQM9v4vHxazBPaId7qwXhorRanEAhN/GOqxC7gm5KPu7oUfvn3YPyVVrj+kGXbukIN09fSPtc+UPF28b65EjdX2QjP4qzvr3X0Hub0iXjoFG3LErQoR1eg4kZKtdjmcPH42tx78cn4hNEEgXgVFFExqfIKBW030kaWWWSXbZxLbKARaOa8rgqVZQeY0F7FVUBSkCLP7Irr6OuOgCsohppjWF18iLHvnHsV2TAzlViqpIgJhnfVx969/I7H+q9sIqkCKeuwJdiywIbjBz/YhYAkX3hZoeCj8+CX2z2w6ZqMI3VHCBgEnmSyFZetqUHzhrzLK7TKyT5ughARdjbghmpgYBwUlvppPBKeSmhxwCAEjhX8I0MBKS1qoJJZbR2irwKivfGGi/HXGWVUzyM2AQgLLzJA5uoE8AyxsJ+vAmwoWS1NdZaZ70NZKNNTjvjrHPOOw5yyWtvvPXOex989CnoYAKiYPAhhBhSVFEjBtrooo8hxpiSooSNEmglzE8YySrrbLLNLvsccsypwHyKKba44ksosaSqqq4IE9VVX0ONNTVJDZGimWaba76FFlvqsLWuu+m2u+576LGnE7WF6ofPN1CTCzU1kOJ5/kQNo+T9QUJyOLGMGRBTRgJxzwjAoBVjJoI0RjFyjJmICk5hFZi0jA1VyYgBQtOksl2e2F3IfQk3suFLuKnPkCOG7i+QI0D3EbcnqFXOc2UgNr2QdSo0vA/vW0ikQuKkln57/TtC3YgenO2i5N4k4OlQFWyn9p51b0U2i8ecfcy5+9Y7hIFaJNTSenW55Q5KPRBT65ml5MefP9HfkGHR8Jgbyxfzks+W3iHslI8TlG61N8f3Q0abtXM8p2Yd8aZWVCCkC9N9rsJchW4y+sLZAdZYYQSxdwlFNhDKAkSZvGq1kYPKwBUea4a9aedztwl2NFkXIg26n17pqxMfr7rxLYM2lUIX6ptWJu6XVgbyQysb7kbsagBqkyyy9GlNrG1Yy2lPU9uHPQ1dL3u6tE1it8eB17H+xOuBAlZsFADI4IrET5X0cH1HCNBt1vWJHumpIge7pwUnntyU65s9RX+3p0yHQU170v1mTZGrZsQvYN19kMyYNlBNHODEwIVXK7EZ3wG/6FqzWyNMgU6Sobg68AUv74NHjghs6BwUdiAphsSeoSoAicMIIiQLYxEcffauYRcXmtfQgkktH9SGDqG2ISJtISjpWwgq/QhBDLg8NRiu1dtiermaDW5bDVW9DZS0swmo50ZXIOF9bmEEO51hRF6G3em+GlyMwPBA4baeOd0C0eKU3sPSLIwJGIjBTzBAIbMVKKc7iGaLXDQMqCCw5Rozfndkesozis5pCG4wwJbcUHxJh8uC6/MV4d14M1wRFJZND5PrO4Vtlu4fSdOivVP4Ig934vRzHu4s0M95uFhA3FV0+rTXm09X0bOHbR4ubV1hSODSrjS4U/bwlRsD9IrV73JKf4EYX+kvEGMC9BeIMQF6y0OSyXEclgh4ermttbrBM3zgpxg8vCHCAxH8K6Inghlm/oY7+hsNoaz5Gw0N0X5j0xcL9EMeVuE0kyW7Bc3aCe0IwuXhGQiSqLSXX/CpweUXyJYo8DgN+1FTjR2dY/jxegylatBHoa2RxvLxzcurHxuzh4bhjBwysyUIoizsBG+d6JzqbPOlchU39swiI2MWJJZsG/ojy6dE9uOVtgHeiqWeG4H9BnEQGeZOSaKj6BwaeKfEwcDhPaQrnECpxbnRW2lOqUqQHGe4omDxVHFIiWNbpCNUACBdgy6AAD0TdkWChKyt8IFW1rWneq2/Vt+WDl97tRrDdZO8stJK3shVc5KjQS/dyQ1X2Qkmlgo9Z+fse8IlFmADL5qA8UHWB8g2wGAZS5PPUMMi2NEle4677MHX3Es9eFXZsX1iBsDSGdE7Web0AIO+hNY721wGQ9+3mAaGL3M7lrL3b6v5lPP5emgRJteVeGHaNIHliWba2wUw6+wCeOos3XU28WWt0VIbbOS1MmRbFoTIcdtgGMHcgo493L4HEuodmVegD8wHedoMftI/vWWSPy2+ppuBPjL+Af6bX77wq2duRccuI4rUTw0nCX/5yIB+eoikC/jDQwbwK6jt0GPVAfH4RwEYgbxoI2YYaVKZXuHoPmsWolishb+BOLKmV09qVCTa4iTak1mg8jrbEdhWUQzzG3kkOuCFvgEbIRkUX0djkl4WvmWmVTqbcS60zmb8Sid7oTV78S2lGHF2ePTY8nXB3b3ycBv0YcANdHPiBgrDuYeM7gldKYh3ttTZlQBieoy9Xwy9C+LLPulltDoNuNtneewxjdG7PMa+zq6GN3V6BJ9q5VsOqWbKQZcgaRek98eg/ehlD05Mj178NSf+GCBoMnw68U3t3Ohsan/nwZbu6j1Dw7fTwQpsfKC7p+KDwmEOJ42XCYVK+GkKOaLnDM/0k/h8hWfbj9hCWwLew8sRXR5jy56UoA57hjC6ktxsi6fhjhznZnG3EvrIUzVP2+U85W4VGC28vIoNhaFMU9kO7DQWFOhHjlONy4fs2HkRYdBhl8BHKCgobbVcshBjXpIP1RfHEgY2HM/iDU7YrXwcXCmwk2vOfnCa+V9HoMiIO7t0tIS6dDSF2rQEGqeW3KmlvdajLQOK31gSjfzDpF/Uhl+NT3Sr7n5xpVke3tLVty2KYx/VURzOjjlzGiil6vF6jNjEh6DhPA9dOeNjyqDv5Qw+HZoB5vGEh75xxDMOA18dK9K3zmfrlRBXj3UeTqOq5f7qdjqNDms7nA7XcSLysNnOO8dRhpucBLqOJzeC+U4QCt3IrfO3yMkCOuicK4eOHPwsCPtLa6I3E2bz8TKT3RMZvclkZ/vxeZ7tjV7m2bP9ONPh067oYInedUXDdw5Kn8QG+izNzGT9eb6j9/3P17MdPeeDs933UtzP2izUc20cX8vA9YICd8TFruQIX5N3fH6MkHycYZsGCDziDYL+VSd1sVdNxxNV40PRKHexQXS+BggnPKvCudpX9vAN3p85NcnQ4c2wM9XvXJL9Xer//xGCpDXSf+U7x+C73XJHAAABhGlDQ1BJQ0MgcHJvZmlsZQAAeJx9kj1Iw0AcxV9TpaVUHOwg4pChOlkQFXHUKhShQqgVWnUwufQLmjQkKS6OgmvBwY/FqoOLs64OroIg+AHi5Oik6CIl/i8ptIjxjuN+vLv3uPvfAUKzyjSrZxzQdNvMpJJiLr8qhl4RQZg6MCAzy5iTpDR829c9Any+S/As/31/tj61YDEgIBLPMsO0iTeIpzdtg/M+cYyVZZX4nHjMpAMSP3Jd8fiNc8llgWfGzGxmnjhGLJa6WOliVjY14iniuKrplC/kPFY5b3HWqnXWPie/YbSgryxzncYwUljEEiSIUFBHBVXYSNCsk2IhQ+tJH/+Q65fIpZCrAkaOBdSgQXb94G/wu7ZWcXLCS4omgd4Xx/kYAUK7QKvhON/HjtM6AYLPwJXe8deawMwn6Y2OFj8C+reBi+uOpuwBlzvA4JMhm7IrBWkIxSLwfkbPlKevcAtE1ry6tddx+gBkqVbpG+DgEBgtUfa6z73D3XX7d0+7fj/aqXJqOk7kAAAAAAZiS0dEAAAAAAAA+UO7fwAAAAlwSFlzAAALEwAACxMBAJqcGAAAAAd0SU1FB+QKDREyIDIhjrYAAAXTSURBVHja7VpbbFVFFF0b5KFYwfAQIg9NRJ4mYPCDRyEKIogoBXk0Gk1MNASMgcQICB+mfEqiAokoP0SNpAH9ECSABUUEBaNGtCBPTQUVSiVFgda2LH/W1ZPDvfecM2daXnclzTmd2XvN3nP3nJnZM0ABBRRQQAHXLyyuIMnWAAjgVgD7AXRL0e5RAIMANOr/InH2SMFZBWAAgDoAZmZNXnuK5HskF+u9hO5oIDlaPEtJLtV7sepc0ERynHgWk1zh2/mygPGDVfa+o7ErpT+aZKP+7lXZCkfO1dIfHOjEeb6cnyUjM9hLsi3JziRPJjT0B5KtSbYjeSxQ/pPKOpA8mpDzJMlbZNPeUFSUpHV+WI6wXKT66QkMrSc5RHrLs9QvV91wycbFdOktylJXS/I+V+d7iiCXM4Mkty6moWWSH5dHpjg05KKwTvID83RaFcnbkzrfieSRiMYrSJqGwqkI2X0k2ytUT+SRO0KySLL7IjhPkewse7+N0f6NcZ2/ieT2mL/AnBizwnmSfSW3JgbnGskO0TjOhZLAVz8OtsTtgLcTjL9zJPtIb20Omfmqn5SAd5J05ueoXxv46if5XqyKcv5lhyloh3S7ZhkKu0i2IXkbyZoEnCc0DNuIIxz6XVX3lYO9c3I5PzPF4uZ5ccwIlJ0NhP6HDpzvSPfu0K88Q+ULUtg7Puz8aJIXUhDWkryTZCuSm1X2jLhLU/CWimNu6Kt/B8l/UvBeIHlPxvm7Ir7McVEhvl4k12uG6JMw9MOoIdlNXO+S7KI2KjzY+xvJnkbydW1MfGCJme0JRNZCAGNTcm40szcCnGMALPFk7zeF7bB2Zq08clabWSXJrh4jq9LMqkkOTLkND+MiSL5Ev9ijUB3pkXOkOA96tvUFJFzPx0UPzdN1HrjqxNXDs41vIRD6pQD2eQytUWbWAOBTD1ybxDXOo32fAZj7XweYWaMaqPbUwAQ9v/DAleF42JNtRwFMk8+XrAaHJlxb58LhwDY1LQaK67gHrjMkB0TtBx73NMb6K/uTZiF0Whz9Pdk0KezvJdOfma0H8IqHUCtWZnZnCo4N4hjlwZ4FZvZxZAcIZQDKUzY4MrOSS8GxS8/HUtqyBsCrSbNCHUh+nyLc/lT49k3B0dfDMNpJ8mbXvGBvh8xvEJm84a8OuoekOyhF+79E5QPzLoHNrApAiU5bXDAxMO+6zNUAMNWx7b8BlJjZCecOUCfsBjAbwMUU34GPHHQ/0XOES/ACeMrMvvN5OrTMIQTrdWDR3UG3u3Rd1iVlzbJ1JLkpxUZmv8OGaoRDex8k8SnpNng6gANJ1wN6bnaY/pIebf0IYFazdYCZndM6vyaB2hQ9tyfQycgmWQDVAHhAG6fmBcmxCZKSDTrp6RTz+LtehzPtExyXN5Ac2qKpJJKzHQ46vo4h+7lkpyXgn+nqh3MqzMxWAVjZDMvibSGdKCwzs3JcDugcIE6K+oDkH4whO0ayB2LIbiDZCpcTOs09FOMKSxeltuojDlhMsk0xTnyL0tqfuvfM7C8ADwE4G9FOcYw02ZdmRgCPRtj2B4ApavvydoA64WcAkyPEMjm9ijwyFTHG/3kAs8zs2BV3yEByXow02bA8MpkLWIdz1F8k+ewVfdJCcnUeB3vrO3A622Un6ffLo//aFX/UpNte23I48IRkyrPUlavuuRy6W0m2822v9ynEzOoBPAngYJbqR/TcnWf5Oz5L3SEApeK+OqAU+5kEYd5LdSezpLL74WoEycmhS5bBPH9V8CqbyoaHZBszV2CbC826ijKzDQAWhorv1zN4a2tLjuzPPDOrwNWO0PW4jSp7OryZIbkxUPYmrhWQvCFwmbFWU2EvLXebdNmyve4UUrNIa1xL0NW23+Vg5s5wJclKvY9R3XGSHVvKrhbbSZlZtbJJdfj/pGcngK16HwugXlmdWlyrIDk1cKNsCskJet9BciKuB+hqe1ttpYtIdiT5IgoooIACCiigRfEvsWhV/f4pKzkAAAAASUVORK5CYII=;" vertex="1" parent="1">
          <mxGeometry x="145" y="-1000" width="50" height="50" as="geometry" />
        </mxCell>
      </root>
    </mxGraphModel>
  </diagram>
</mxfile>
